<svg width="96" height="96" viewBox="0 0 96 96" fill="none" xmlns="http://www.w3.org/2000/svg">
<path d="M76 74V53.358C78.094 52.764 80.5 51 82 49.25V74C82 77.1826 80.7357 80.2348 78.4853 82.4853C76.2348 84.7357 73.1826 86 70 86H22C18.8174 86 15.7652 84.7357 13.5147 82.4853C11.2643 80.2348 10 77.1826 10 74V38C10 34.8174 11.2643 31.7652 13.5147 29.5147C15.7652 27.2643 18.8174 26 22 26H42.5C41.5 28 41.3201 30.004 41.5 32H22C20.4087 32 18.8826 32.6321 17.7574 33.7574C16.6321 34.8826 16 36.4087 16 38V42.44L46 58.592L55 53.358C57.064 54.678 60 55.5 63 55.5L47.428 64.646C46.9902 64.8823 46.5005 65.006 46.003 65.006C45.5055 65.006 45.0158 64.8823 44.578 64.646L16 49.25V74C16 75.5913 16.6321 77.1174 17.7574 78.2426C18.8826 79.3679 20.4087 80 22 80H70C71.5913 80 73.1174 79.3679 74.2426 78.2426C75.3679 77.1174 76 75.5913 76 74Z" fill="#494952"/>
<path d="M84.4015 40.0363C85.4568 37.4885 86 34.7578 86 32C86 26.4305 83.7875 21.089 79.8492 17.1508C75.911 13.2125 70.5695 11 65 11C59.4305 11 54.089 13.2125 50.1508 17.1508C46.2125 21.089 44 26.4305 44 32C44 34.7578 44.5432 37.4885 45.5985 40.0363C46.6539 42.5842 48.2007 44.8992 50.1508 46.8492C52.1008 48.7993 54.4158 50.3461 56.9636 51.4015C59.5115 52.4568 62.2422 53 65 53C67.7578 53 70.4885 52.4568 73.0363 51.4015C75.5842 50.3461 77.8992 48.7993 79.8492 46.8492C81.7993 44.8992 83.3461 42.5842 84.4015 40.0363Z" fill="#5168F4"/>
<path d="M75.516 23.1717C75.8075 23.2851 76.0723 23.4513 76.2951 23.6607C76.5186 23.8696 76.6958 24.1178 76.8168 24.391C76.9377 24.6643 77 24.9572 77 25.253C77 25.5488 76.9377 25.8418 76.8168 26.115C76.6958 26.3882 76.5186 26.6364 76.2951 26.8453L61.8995 40.3393C61.6766 40.5487 61.4119 40.7149 61.1204 40.8283C60.8289 40.9416 60.5164 41 60.2008 41C59.8852 41 59.5728 40.9416 59.2813 40.8283C58.9898 40.7149 58.725 40.5487 58.5022 40.3393L53.7036 35.8413C53.4805 35.6322 53.3036 35.3839 53.1829 35.1107C53.0621 34.8375 53 34.5447 53 34.249C53 33.9533 53.0621 33.6605 53.1829 33.3873C53.3036 33.1141 53.4805 32.8658 53.7036 32.6567C53.9267 32.4476 54.1915 32.2817 54.483 32.1686C54.7744 32.0554 55.0868 31.9972 55.4023 31.9972C55.7178 31.9972 56.0302 32.0554 56.3216 32.1686C56.6131 32.2817 56.8779 32.4476 57.101 32.6567L60.2008 35.5669L72.8978 23.6607C73.1206 23.4513 73.3854 23.2851 73.6769 23.1717C73.9684 23.0584 74.2809 23 74.5964 23C74.912 23 75.2245 23.0584 75.516 23.1717Z" fill="white"/>
</svg>
