<svg width="570" height="699" viewBox="0 0 570 699" fill="none" xmlns="http://www.w3.org/2000/svg">
<path d="M315.615 650C455.683 650 569.231 643.284 569.231 635C569.231 626.716 455.683 620 315.615 620C175.547 620 61.9999 626.716 61.9999 635C61.9999 643.284 175.547 650 315.615 650Z" fill="#F5F5F5"/>
<path d="M303.957 537H118.216L108.052 206.007H293.793L303.957 537Z" fill="#407BFF"/>
<path d="M313.231 526.724H127.49L117.313 195.73H303.054L313.231 526.724Z" fill="#407BFF"/>
<path opacity="0.3" d="M313.231 526.724H127.49L117.313 195.73H303.054L313.231 526.724Z" fill="white"/>
<path d="M250.998 331.934C270.886 309.517 270.039 272.862 249.108 250.062C228.177 227.262 195.086 226.952 175.199 249.369C155.311 271.785 156.157 308.441 177.089 331.24C198.02 354.04 231.11 354.35 250.998 331.934Z" fill="#407BFF"/>
<path d="M256.227 290.664C256.494 298.551 254.941 306.384 251.714 313.42C248.231 321.002 242.91 327.359 236.348 331.778C229.787 336.197 222.244 338.502 214.566 338.436C206.707 338.389 198.998 336.053 192.211 331.662C185.425 327.271 179.799 320.98 175.9 313.42C172.264 306.492 170.233 298.674 169.988 290.664C169.746 284.454 170.647 278.254 172.635 272.441C174.623 266.628 177.657 261.324 181.552 256.851C185.448 252.377 190.123 248.828 195.295 246.419C200.466 244.009 206.026 242.79 211.636 242.835C223.192 242.926 234.274 247.946 242.577 256.853C250.881 265.76 255.769 277.869 256.227 290.664Z" fill="white"/>
<path opacity="0.6" d="M251.688 313.42C248.205 321.002 242.884 327.359 236.322 331.778C229.761 336.197 222.218 338.502 214.54 338.436C206.681 338.389 198.972 336.053 192.185 331.662C185.399 327.271 179.773 320.98 175.874 313.42C186.936 305.063 200.026 300.62 213.415 300.68C227.019 300.712 240.319 305.14 251.688 313.42Z" fill="#407BFF"/>
<path opacity="0.6" d="M226.537 289.473C233.85 281.23 233.538 267.751 225.842 259.368C218.145 250.984 205.978 250.87 198.665 259.113C191.352 267.356 191.663 280.834 199.359 289.218C207.056 297.601 219.224 297.715 226.537 289.473Z" fill="#407BFF"/>
<path d="M275.912 406.861H157.43L156.633 380.772H275.115L275.912 406.861Z" fill="white"/>
<path d="M277.351 453.487H158.856L158.058 427.398H276.553L277.351 453.487Z" fill="white"/>
<path d="M231.622 430.993L203.068 435.341C202.796 435.375 202.532 435.472 202.295 435.624C202.058 435.777 201.852 435.982 201.69 436.227C201.528 436.472 201.413 436.751 201.353 437.048C201.293 437.344 201.289 437.651 201.341 437.95L205.095 459.154C205.218 459.776 205.547 460.325 206.016 460.693C206.486 461.06 207.063 461.219 207.633 461.14L236.188 456.791C236.459 456.753 236.721 456.654 236.957 456.499C237.193 456.344 237.397 456.138 237.558 455.892C237.718 455.646 237.832 455.366 237.891 455.069C237.95 454.773 237.953 454.466 237.901 454.168L234.16 432.964C234.037 432.342 233.708 431.795 233.238 431.43C232.768 431.065 232.191 430.909 231.622 430.993ZM223.421 452.472L218.189 453.24L217.679 446.399C217.14 446.141 216.665 445.743 216.293 445.238C215.922 444.734 215.666 444.138 215.547 443.501C215.451 443.007 215.449 442.497 215.542 442.002C215.635 441.508 215.821 441.041 216.087 440.631C216.354 440.221 216.695 439.878 217.088 439.623C217.482 439.368 217.919 439.208 218.372 439.153C219.301 439.02 220.241 439.279 221.007 439.877C221.772 440.476 222.307 441.37 222.505 442.385C222.619 442.997 222.584 443.632 222.405 444.225C222.226 444.818 221.909 445.348 221.485 445.762L223.421 452.472Z" fill="#407BFF"/>
<path d="M228.797 429.848C228.292 429.919 227.782 429.778 227.365 429.454C226.949 429.13 226.657 428.644 226.547 428.094L226.181 426.021C225.658 423.193 224.227 420.671 222.154 418.922C220.081 417.174 217.505 416.318 214.906 416.513C213.594 416.596 212.313 416.991 211.152 417.671C209.99 418.351 208.973 419.299 208.172 420.453C207.37 421.607 206.802 422.938 206.506 424.356C206.21 425.775 206.193 427.247 206.456 428.674L206.874 431.065C206.923 431.33 206.921 431.603 206.869 431.868C206.817 432.132 206.716 432.381 206.572 432.599C206.428 432.818 206.244 433 206.033 433.135C205.821 433.271 205.587 433.355 205.344 433.384C204.838 433.462 204.324 433.325 203.907 432.999C203.489 432.673 203.199 432.184 203.094 431.63L202.741 429.616C202.382 427.733 202.37 425.789 202.706 423.901C203.042 422.013 203.719 420.22 204.697 418.629C205.674 417.038 206.932 415.683 208.394 414.644C209.856 413.606 211.493 412.905 213.205 412.586C216.919 411.895 220.73 412.815 223.847 415.154C226.965 417.494 229.15 421.074 229.948 425.152L230.367 427.529C230.415 427.797 230.413 428.074 230.358 428.341C230.304 428.608 230.199 428.859 230.051 429.078C229.902 429.297 229.714 429.479 229.498 429.611C229.282 429.744 229.043 429.824 228.797 429.848Z" fill="#407BFF"/>
<path d="M257.796 490.026H180.661L180.151 473.039H257.273L257.796 490.026Z" fill="#407BFF"/>
<path d="M220.583 393.816C220.606 394.436 220.515 395.054 220.316 395.634C220.117 396.213 219.814 396.742 219.425 397.188C219.036 397.634 218.569 397.987 218.053 398.228C217.537 398.468 216.983 398.589 216.423 398.585C215.27 398.575 214.164 398.075 213.334 397.187C212.504 396.3 212.013 395.093 211.963 393.816C211.94 393.197 212.03 392.579 212.229 391.999C212.428 391.419 212.732 390.891 213.12 390.445C213.509 389.999 213.976 389.645 214.492 389.405C215.008 389.165 215.563 389.043 216.122 389.048C217.276 389.054 218.384 389.553 219.215 390.442C220.046 391.33 220.535 392.538 220.583 393.816Z" fill="#263238"/>
<path d="M201.982 393.816C202.007 394.436 201.918 395.056 201.719 395.636C201.521 396.217 201.218 396.746 200.829 397.193C200.439 397.639 199.972 397.992 199.455 398.232C198.938 398.471 198.383 398.591 197.823 398.585C196.671 398.575 195.566 398.074 194.738 397.186C193.91 396.298 193.422 395.092 193.375 393.816C193.352 393.197 193.443 392.579 193.642 391.999C193.841 391.419 194.144 390.891 194.533 390.445C194.922 389.999 195.389 389.645 195.905 389.405C196.421 389.165 196.975 389.043 197.535 389.048C198.688 389.054 199.794 389.554 200.623 390.443C201.451 391.331 201.938 392.54 201.982 393.816Z" fill="#263238"/>
<path d="M183.5 393.816C183.523 394.436 183.432 395.054 183.233 395.634C183.034 396.213 182.731 396.742 182.342 397.188C181.953 397.634 181.486 397.987 180.97 398.228C180.454 398.468 179.9 398.589 179.34 398.585C178.187 398.578 177.081 398.079 176.252 397.19C175.424 396.302 174.937 395.093 174.893 393.816C174.87 393.197 174.961 392.579 175.16 391.999C175.359 391.419 175.662 390.891 176.051 390.445C176.44 389.999 176.906 389.645 177.422 389.405C177.938 389.165 178.493 389.043 179.052 389.048C180.205 389.054 181.312 389.554 182.14 390.443C182.969 391.331 183.456 392.54 183.5 393.816Z" fill="#263238"/>
<path d="M239.117 393.816C239.141 394.436 239.05 395.054 238.851 395.634C238.652 396.213 238.349 396.742 237.96 397.188C237.571 397.634 237.104 397.987 236.588 398.227C236.072 398.468 235.518 398.589 234.958 398.585C233.805 398.578 232.699 398.078 231.87 397.19C231.041 396.302 230.554 395.093 230.511 393.816C230.491 393.198 230.585 392.583 230.787 392.006C230.988 391.43 231.293 390.905 231.683 390.463C232.074 390.021 232.541 389.672 233.056 389.436C233.572 389.2 234.125 389.083 234.683 389.091C235.827 389.101 236.925 389.596 237.75 390.475C238.574 391.354 239.064 392.55 239.117 393.816Z" fill="#263238"/>
<path d="M257.652 393.816C257.677 394.436 257.588 395.056 257.39 395.636C257.191 396.217 256.888 396.746 256.499 397.193C256.109 397.639 255.642 397.992 255.125 398.232C254.608 398.471 254.053 398.591 253.493 398.585C252.341 398.575 251.236 398.074 250.408 397.186C249.581 396.298 249.092 395.092 249.045 393.816C249.022 393.197 249.113 392.579 249.312 391.999C249.511 391.419 249.814 390.891 250.203 390.445C250.592 389.999 251.059 389.645 251.575 389.405C252.091 389.165 252.645 389.043 253.205 389.048C254.358 389.054 255.464 389.554 256.293 390.443C257.122 391.331 257.609 392.54 257.652 393.816Z" fill="#263238"/>
<path d="M420.621 271.643C422.519 274.883 424.103 277.972 425.73 281.197C427.357 284.422 428.827 287.662 430.268 290.978C433.209 297.692 435.643 304.644 437.546 311.767C437.803 312.66 437.989 313.614 438.203 314.538L438.517 315.946L438.674 316.642L438.859 317.793C439.181 320.403 439.031 323.055 438.417 325.606C437.432 329.566 435.933 333.363 433.964 336.886C430.443 343.289 426.186 349.204 421.292 354.495L415.284 349.68C418.3 343.799 420.983 337.731 423.319 331.511C424.359 328.77 425.092 325.909 425.502 322.986C425.633 322.094 425.594 321.183 425.388 320.306L424.817 318.459C424.589 317.702 424.375 316.945 424.103 316.173C421.933 309.927 419.422 303.819 416.583 297.882C413.729 291.826 410.66 285.769 407.592 279.985L420.621 271.643Z" fill="#FF8B7B"/>
<path d="M416.811 347.576L410.247 351.255L417.781 360.612C417.781 360.612 422.491 357.236 422.705 352.088L416.811 347.576Z" fill="#FF8B7B"/>
<path d="M401.442 357.024L409.505 363.822L417.782 360.612L410.247 351.255L401.442 357.024Z" fill="#FF8B7B"/>
<path d="M373.871 222.1C373.714 222.948 373.157 223.539 372.643 223.433C372.13 223.327 371.83 222.539 371.987 221.707C372.144 220.874 372.701 220.193 373.229 220.374C373.757 220.556 374.028 221.252 373.871 222.1Z" fill="#263238"/>
<path d="M373.229 223.554C371.791 225.925 370.053 228.076 368.062 229.943C368.533 230.46 369.102 230.863 369.733 231.125C370.364 231.386 371.04 231.5 371.716 231.458L373.229 223.554Z" fill="#FF5652"/>
<path d="M370.66 253.261V243.328L383.047 244.843C383.047 244.843 382.847 253.382 375.911 255.896L370.66 253.261Z" fill="#FF8B7B"/>
<path d="M374.227 236.182L382.947 238.847L383.104 244.918L370.717 243.328L374.227 236.182Z" fill="#FF8B7B"/>
<path opacity="0.2" d="M382.947 238.847L374.228 236.182L372.529 239.634C372.622 242.354 373.423 244.994 374.844 247.26C376.265 249.527 378.249 251.331 380.578 252.474C382.076 250.254 382.952 247.629 383.104 244.903L382.947 238.847Z" fill="black"/>
<path d="M377.667 218.058C377.758 218.055 377.847 218.025 377.923 217.971C377.999 217.917 378.059 217.842 378.097 217.753C378.134 217.664 378.147 217.566 378.134 217.47C378.121 217.374 378.083 217.284 378.024 217.21C377.522 216.609 376.893 216.145 376.188 215.855C375.483 215.565 374.722 215.459 373.971 215.544C373.848 215.566 373.738 215.639 373.666 215.747C373.594 215.855 373.565 215.989 373.585 216.12C373.606 216.251 373.675 216.369 373.776 216.448C373.877 216.527 374.003 216.561 374.128 216.544C374.723 216.482 375.324 216.571 375.88 216.806C376.436 217.04 376.931 217.412 377.324 217.891C377.368 217.942 377.421 217.982 377.48 218.011C377.538 218.04 377.602 218.056 377.667 218.058Z" fill="#263238"/>
<path d="M395.905 237.423C394.478 245.221 393.593 256.017 398.759 261.21C398.759 261.21 396.761 269.114 383.061 269.114C368.063 269.114 375.854 262.179 375.854 262.179C382.091 260.12 382.034 252.595 380.606 246.538L395.905 237.423Z" fill="#FF8B7B"/>
<path d="M401.542 266.419C402.883 264.42 402.826 258.076 401.399 256.956C399.101 255.154 389.24 254.73 375.983 257.97C377.41 264.117 374.342 267.327 374.342 267.327L401.542 266.419Z" fill="#407BFF"/>
<path d="M446.151 625.887C445.744 626.039 445.313 626.104 444.881 626.078C444.45 626.052 444.028 625.936 443.64 625.736C443.493 625.59 443.392 625.4 443.351 625.191C443.31 624.983 443.331 624.765 443.412 624.57C443.456 624.406 443.535 624.255 443.641 624.127C443.747 623.998 443.878 623.896 444.025 623.828C445.381 623.131 448.492 624.479 448.635 624.54C448.677 624.558 448.713 624.589 448.739 624.63C448.764 624.67 448.778 624.718 448.777 624.767C448.777 624.815 448.765 624.863 448.742 624.905C448.72 624.948 448.688 624.983 448.649 625.009C447.844 625.384 447.008 625.678 446.151 625.887ZM444.51 624.176C444.416 624.2 444.325 624.235 444.239 624.282C444.15 624.317 444.07 624.373 444.006 624.447C443.941 624.52 443.894 624.609 443.868 624.706C443.74 625.16 443.868 625.312 443.954 625.357C444.496 625.842 446.494 625.357 447.907 624.797C446.832 624.325 445.672 624.113 444.51 624.176Z" fill="#407BFF"/>
<path d="M448.592 625.024H448.478C447.336 624.676 444.91 622.844 444.881 621.647C444.88 621.457 444.941 621.273 445.052 621.124C445.164 620.975 445.32 620.871 445.495 620.83C445.664 620.763 445.845 620.736 446.026 620.752C446.206 620.767 446.38 620.825 446.537 620.921C447.878 621.647 448.735 624.585 448.763 624.721C448.783 624.758 448.794 624.8 448.794 624.842C448.794 624.885 448.783 624.927 448.763 624.963C448.741 624.987 448.714 625.005 448.684 625.015C448.655 625.026 448.623 625.029 448.592 625.024ZM445.738 621.254H445.624C445.338 621.36 445.338 621.511 445.338 621.587C445.338 622.299 446.965 623.737 448.192 624.312C447.893 623.464 447.236 621.784 446.366 621.284C446.172 621.191 445.953 621.18 445.752 621.254H445.738Z" fill="#407BFF"/>
<path d="M372.03 627.674C370.745 627.674 369.504 627.477 369.09 626.871C368.982 626.71 368.924 626.517 368.924 626.319C368.924 626.121 368.982 625.927 369.09 625.766C369.172 625.618 369.281 625.489 369.411 625.388C369.541 625.286 369.689 625.214 369.846 625.175C371.516 624.691 375.027 626.811 375.169 626.902C375.213 626.924 375.248 626.962 375.269 627.009C375.29 627.056 375.295 627.109 375.284 627.159C375.278 627.211 375.257 627.259 375.224 627.298C375.19 627.336 375.146 627.361 375.098 627.371C374.086 627.568 373.059 627.669 372.03 627.674ZM370.446 625.599C370.295 625.573 370.14 625.573 369.989 625.599C369.892 625.621 369.801 625.662 369.72 625.722C369.639 625.782 369.57 625.859 369.518 625.948C369.347 626.266 369.418 626.417 369.518 626.508C369.989 627.204 372.515 627.22 374.384 626.932C373.164 626.224 371.827 625.772 370.446 625.599Z" fill="#407BFF"/>
<path d="M375.084 627.371H374.984C373.771 626.796 371.373 624.494 371.559 623.283C371.559 622.995 371.787 622.647 372.444 622.586C372.678 622.557 372.916 622.58 373.142 622.653C373.368 622.726 373.577 622.847 373.757 623.01C374.671 624.17 375.22 625.605 375.326 627.114C375.326 627.157 375.317 627.199 375.3 627.239C375.282 627.278 375.257 627.313 375.226 627.341C375.182 627.364 375.133 627.375 375.084 627.371ZM372.629 623.056H372.486C372.058 623.056 372.03 623.268 372.03 623.328C371.916 624.055 373.543 625.872 374.784 626.659C374.675 625.444 374.211 624.296 373.457 623.374C373.222 623.162 372.923 623.049 372.615 623.056H372.629Z" fill="#407BFF"/>
<path d="M386.101 627.128H376.068L375.069 602.463H385.102L386.101 627.128Z" fill="#FF8B7B"/>
<path d="M459.78 622.193L449.976 624.449L440.115 601.48L449.933 599.224L459.78 622.193Z" fill="#FF8B7B"/>
<path d="M449.02 623.404L460.051 620.875C460.244 620.832 460.445 620.859 460.621 620.953C460.797 621.046 460.939 621.2 461.022 621.39L464.846 630.202C464.948 630.416 465.001 630.652 465 630.891C464.999 631.13 464.945 631.366 464.842 631.578C464.739 631.791 464.59 631.975 464.407 632.115C464.224 632.254 464.013 632.346 463.79 632.383C459.937 633.185 458.01 633.382 453.173 634.487C450.19 635.184 443.454 636.925 439.33 637.864C435.206 638.803 433.793 634.608 435.406 633.836C442.612 630.339 445.609 627.265 447.564 624.403C447.918 623.892 448.436 623.537 449.02 623.404Z" fill="#263238"/>
<path d="M376.14 625.887H387.1C387.299 625.888 387.491 625.961 387.647 626.093C387.802 626.225 387.911 626.408 387.956 626.614L389.94 636.077C389.998 636.306 390.004 636.546 389.959 636.778C389.914 637.01 389.818 637.227 389.68 637.413C389.541 637.598 389.363 637.747 389.16 637.846C388.957 637.946 388.736 637.993 388.512 637.985C384.56 637.909 378.851 637.667 373.885 637.667C368.063 637.667 363.054 638 356.232 638C352.108 638 350.966 633.579 352.693 633.17C360.542 631.353 366.964 631.156 373.742 626.72C374.454 626.214 375.284 625.926 376.14 625.887Z" fill="#263238"/>
<path d="M416.711 263.648C426.116 265.934 433.836 291.417 433.836 291.417L415.041 306.664C410.163 301.13 406.721 294.348 405.052 286.981C401.727 273.626 407.093 261.286 416.711 263.648Z" fill="#407BFF"/>
<path opacity="0.4" d="M416.711 263.648C426.116 265.934 433.836 291.417 433.836 291.417L415.041 306.664C410.163 301.13 406.721 294.348 405.052 286.981C401.727 273.626 407.093 261.286 416.711 263.648Z" fill="black"/>
<path d="M367.235 294.036C364.895 296.716 362.554 299.109 360.1 301.607C358.887 302.818 357.659 304.029 356.403 305.195L354.505 306.967L354.035 307.406L353.221 308.102C352.384 308.812 351.457 309.393 350.467 309.829C349.365 310.325 348.181 310.582 346.985 310.586C345.962 310.59 344.947 310.401 343.988 310.025C342.924 309.595 341.953 308.941 341.134 308.102C340.088 307.018 339.322 305.668 338.908 304.181C338.691 303.448 338.552 302.691 338.494 301.925C338.419 301.028 338.419 300.126 338.494 299.23C338.565 298.503 338.651 297.867 338.765 297.276C339.155 295.212 339.709 293.186 340.42 291.22C341.062 289.351 341.801 287.521 342.632 285.739C343.546 283.816 344.416 282.408 345.287 280.803C348.822 274.657 352.857 268.851 357.345 263.451C361.788 258.082 366.684 253.156 371.973 248.734L377.224 254.472C373.543 259.711 369.918 265.328 366.564 270.855C363.227 276.35 360.177 282.037 357.431 287.889C356.817 289.312 356.004 290.917 355.619 292.068C355.108 293.405 354.665 294.769 354.291 296.156C353.932 297.405 353.66 298.68 353.478 299.972C353.468 300.173 353.468 300.376 353.478 300.577C353.478 300.698 353.478 300.759 353.478 300.441C353.454 300.101 353.392 299.766 353.293 299.442C352.984 298.368 352.418 297.398 351.651 296.625C350.969 295.96 350.168 295.445 349.297 295.111C348.531 294.803 347.718 294.644 346.899 294.642C346.111 294.632 345.33 294.791 344.602 295.111C344.355 295.218 344.117 295.345 343.888 295.49L344.43 294.96L346.157 293.294L349.568 289.903C351.823 287.647 354.092 285.239 356.232 282.998L367.235 294.036Z" fill="#FF8B7B"/>
<path opacity="0.2" d="M408.648 282.363C413.757 287.723 415.427 297.504 415.784 305.983L414.956 306.664C410.078 301.13 406.636 294.348 404.967 286.981C404.781 286.193 404.61 285.466 404.481 284.603L408.648 282.363Z" fill="black"/>
<path d="M357.26 274.247C355.205 285.754 353.92 309.39 359.871 356.176H413.615C413.986 347.44 408.805 304.772 416.754 263.572C410.815 262.362 404.809 261.558 398.773 261.165C391.168 260.702 383.545 260.702 375.94 261.165C373.428 261.407 370.945 261.801 368.805 262.21C365.958 262.739 363.33 264.174 361.268 266.324C359.207 268.473 357.809 271.236 357.26 274.247Z" fill="#407BFF"/>
<path opacity="0.4" d="M357.26 274.247C355.205 285.754 353.92 309.39 359.871 356.176H413.615C413.986 347.44 408.805 304.772 416.754 263.572C410.815 262.362 404.809 261.558 398.773 261.165C391.168 260.702 383.545 260.702 375.94 261.165C373.428 261.407 370.945 261.801 368.805 262.21C365.958 262.739 363.33 264.174 361.268 266.324C359.207 268.473 357.809 271.236 357.26 274.247Z" fill="black"/>
<path opacity="0.2" d="M365.48 291.311L355.776 288.843C355.476 295.081 355.447 302.803 355.876 312.357C360.342 306.967 366.05 298.549 365.48 291.311Z" fill="black"/>
<path opacity="0.2" d="M375.069 602.463L375.583 615.182H385.63L385.116 602.463H375.069Z" fill="black"/>
<path opacity="0.2" d="M449.933 599.224L440.115 601.48L445.195 613.32L455.014 611.064L449.933 599.224Z" fill="black"/>
<path d="M400.671 226.037C398.102 236.242 397.075 242.359 391.138 246.599C382.219 253.049 371.088 245.66 370.803 234.88C370.489 225.144 374.756 210.078 385.073 208.019C387.341 207.568 389.679 207.736 391.868 208.509C394.057 209.281 396.024 210.633 397.585 212.435C399.145 214.238 400.248 216.433 400.787 218.812C401.327 221.192 401.287 223.678 400.671 226.037Z" fill="#FF8B7B"/>
<path d="M378.152 226.416C377.667 225.053 375.455 214.499 377.538 211.759C379.622 209.018 403.383 211.002 406.893 214.666C412.73 220.723 408.677 226.173 402.298 233.184C397.503 238.453 397.317 244.388 394.891 245.297C390.61 246.811 384.074 245.388 382.761 240.588C381.449 235.788 378.152 226.416 378.152 226.416Z" fill="#263238"/>
<path d="M404.01 202.659C395.619 198.874 379.879 203.068 371.373 200.887C371.265 204.243 372.305 207.527 374.301 210.132C376.298 212.737 379.115 214.487 382.233 215.06C389.289 216.486 396.457 217.191 403.639 217.164C412.972 216.71 411.146 205.884 404.01 202.659Z" fill="#263238"/>
<path d="M405.323 214.984C408.388 215.304 411.476 214.678 414.214 213.182C415.784 217.21 407.15 218.315 405.323 214.984Z" fill="#263238"/>
<path d="M382.719 226.84C382.526 229.465 381.523 231.951 379.864 233.911C377.667 236.469 375.383 234.864 374.998 231.76C374.656 228.944 375.369 224.19 378.052 222.827C380.735 221.464 382.904 223.675 382.719 226.84Z" fill="#FF8B7B"/>
<path d="M378.923 356.221C378.923 356.221 390.339 437.606 396.575 468.1C403.411 501.487 440.144 611.942 440.144 611.942L458.11 607.808C458.11 607.808 432.423 517.779 426.715 471.098C422.291 435.244 413.6 356.191 413.6 356.191L378.923 356.221Z" fill="#407BFF"/>
<path d="M435.834 605.598C435.763 605.598 439.187 612.502 439.187 612.502L459.395 607.854L457.696 601.404L435.834 605.598Z" fill="#263238"/>
<path opacity="0.3" d="M386.129 385.217C399.301 387.958 397.902 440.074 396.318 466.889C392.522 447.932 386.957 411.472 383.161 385.596C384.081 385.114 385.128 384.98 386.129 385.217Z" fill="black"/>
<path d="M359.871 356.222C359.871 356.222 358.444 435.849 359.586 468.267C360.728 502.047 371.844 612.654 371.844 612.654H388.855C388.855 612.654 389.469 504.015 390.282 470.841C391.11 434.683 395.22 356.161 395.22 356.161L359.871 356.222Z" fill="#407BFF"/>
<path d="M368.576 605.537C368.491 605.537 369.532 613.017 369.532 613.017H390.211L390.781 606.34L368.576 605.537Z" fill="#263238"/>
<path d="M378.295 277.79C383.104 291.553 354.834 307.769 354.834 307.769L342.589 291.114C342.589 291.114 350.824 273.823 360.813 266.04C373.157 256.441 374.627 267.312 378.295 277.79Z" fill="#407BFF"/>
<path opacity="0.4" d="M378.295 277.79C383.104 291.553 354.834 307.769 354.834 307.769L342.589 291.114C342.589 291.114 350.824 273.823 360.813 266.04C373.157 256.441 374.627 267.312 378.295 277.79Z" fill="black"/>
<path d="M491.5 138.802C517.572 138.802 538.707 119.371 538.707 95.401C538.707 71.4313 517.572 52 491.5 52C465.428 52 444.293 71.4313 444.293 95.401C444.293 119.371 465.428 138.802 491.5 138.802Z" fill="#407BFF"/>
<path d="M474.469 117.252C471.36 117.238 468.353 115.643 465.977 112.747C463.602 109.852 462.01 105.841 461.481 101.42C460.96 96.6318 461.709 91.736 463.578 87.7078C465.447 83.6796 468.299 80.8143 471.566 79.6823C474.247 78.7911 477.054 79.1346 479.593 80.6645C482.131 82.1944 484.274 84.8338 485.719 88.2115L516.026 79.1917C517.19 78.8237 518.409 79.1031 519.437 79.9741C520.465 80.8451 521.227 82.2437 521.572 83.8903C521.73 84.756 521.765 85.6593 521.673 86.545C521.582 87.4306 521.366 88.28 521.039 89.0412C520.712 89.8024 520.281 90.4595 519.772 90.9722C519.263 91.485 518.687 91.8426 518.079 92.0233L517.295 92.2497C517.178 92.2799 517.068 92.3483 516.973 92.4498C516.877 92.5512 516.8 92.6829 516.745 92.8347C516.697 92.9888 516.672 93.1561 516.672 93.3253C516.672 93.4945 516.697 93.6618 516.745 93.8159L517.281 95.8161C517.461 96.4645 517.479 97.1829 517.33 97.8477C517.182 98.5125 516.878 99.082 516.47 99.458C516.149 99.7446 515.877 100.133 515.675 100.594C515.474 101.055 515.347 101.577 515.306 102.119C515.268 102.741 515.094 103.329 514.81 103.8C514.526 104.271 514.145 104.601 513.724 104.742L513.109 104.93C512.683 105.044 512.243 104.959 511.852 104.687C511.462 104.416 511.141 103.972 510.938 103.421C510.666 102.763 510.259 102.243 509.773 101.935C509.287 101.626 508.747 101.544 508.227 101.7C507.707 101.856 507.234 102.241 506.873 102.804C506.513 103.366 506.283 104.076 506.215 104.836C506.179 105.454 506.007 106.039 505.725 106.508C505.443 106.976 505.065 107.302 504.646 107.44L504.031 107.629C503.605 107.739 503.166 107.653 502.776 107.382C502.386 107.111 502.065 106.669 501.86 106.119C501.664 105.651 501.4 105.25 501.086 104.944C500.772 104.638 500.416 104.433 500.042 104.345C499.539 104.258 499.075 103.909 498.738 103.363C498.401 102.818 498.213 102.114 498.21 101.383V99.2316C498.205 99.0633 498.175 98.8986 498.121 98.7489C498.068 98.5991 497.992 98.4678 497.9 98.3639C497.809 98.26 497.702 98.1859 497.589 98.1468C497.475 98.1076 497.357 98.1043 497.242 98.1371L487.576 101.005C487.182 104.869 485.972 108.463 484.111 111.299C482.251 114.135 479.829 116.076 477.177 116.856C476.286 117.119 475.379 117.252 474.469 117.252ZM471.853 81.3995C468.887 82.3992 466.292 84.9834 464.594 88.6318C462.895 92.2802 462.217 96.7217 462.697 101.062C463.212 105.1 464.711 108.739 466.923 111.321C469.136 113.903 471.916 115.257 474.761 115.138C477.606 115.02 480.327 113.436 482.433 110.674C484.539 107.913 485.89 104.155 486.242 100.081V99.4014L496.902 96.2879C497.208 96.1811 497.527 96.174 497.834 96.267C498.142 96.3599 498.432 96.5506 498.683 96.8253C498.933 97.0999 499.138 97.4516 499.283 97.8548C499.427 98.2579 499.508 98.7025 499.518 99.1561V101.307C499.521 101.563 499.585 101.81 499.7 102.006C499.814 102.202 499.972 102.335 500.146 102.383C500.718 102.501 501.264 102.805 501.742 103.273C502.22 103.74 502.618 104.359 502.906 105.081C502.976 105.285 503.087 105.452 503.225 105.561C503.364 105.669 503.522 105.712 503.678 105.685L504.28 105.496C504.432 105.44 504.568 105.314 504.667 105.137C504.766 104.96 504.823 104.742 504.829 104.515C504.911 103.34 505.251 102.234 505.798 101.356C506.345 100.477 507.071 99.8727 507.872 99.6291C508.673 99.3854 509.506 99.5154 510.253 100C510.999 100.485 511.619 101.3 512.023 102.326C512.09 102.528 512.199 102.695 512.335 102.803C512.471 102.912 512.628 102.956 512.782 102.93L513.41 102.741C513.56 102.681 513.693 102.554 513.789 102.377C513.886 102.201 513.941 101.985 513.946 101.76C514.011 100.932 514.206 100.135 514.516 99.4323C514.827 98.7292 515.245 98.1377 515.738 97.7031C515.882 97.5531 515.987 97.338 516.037 97.0919C516.087 96.8458 516.078 96.5827 516.013 96.3445L515.476 94.3443C515.366 93.9319 515.318 93.4896 515.338 93.0482C515.358 92.6068 515.445 92.1771 515.592 91.7889C515.739 91.4007 515.943 91.0636 516.189 90.8009C516.436 90.5383 516.719 90.3565 517.02 90.2683L517.818 90.023C518.25 89.8902 518.658 89.6331 519.02 89.2671C519.381 88.9011 519.688 88.4336 519.921 87.8928C520.154 87.352 520.309 86.7489 520.377 86.1195C520.445 85.4901 520.424 84.8475 520.316 84.23C520.061 83.0424 519.504 82.0381 518.756 81.4186C518.009 80.7991 517.127 80.6103 516.287 80.89L485.13 90.2306L484.894 89.6456C483.643 86.4307 481.699 83.8909 479.358 82.4101C477.018 80.9292 474.406 80.5877 471.919 81.4372L471.853 81.3995ZM474.469 110.233C472.845 110.259 471.25 109.603 469.878 108.346C468.256 106.81 467.054 104.509 466.476 101.837C465.898 99.1651 465.98 96.2865 466.709 93.6922C467.438 91.0979 468.767 88.9485 470.472 87.6104C472.176 86.2723 474.149 85.8283 476.055 86.3542C477.961 86.88 479.681 88.3432 480.923 90.4941C482.164 92.6451 482.85 95.3508 482.864 98.1499C482.878 100.949 482.218 103.668 480.997 105.844C479.776 108.02 478.07 109.518 476.17 110.082C475.613 110.227 475.048 110.29 474.482 110.271L474.469 110.233ZM474.469 87.9473C473.982 87.9513 473.496 88.0208 473.017 88.1549C472.106 88.4349 471.242 88.9711 470.475 89.7329C469.707 90.4947 469.051 91.4671 468.544 92.5947C468.037 93.7223 467.688 94.9829 467.519 96.3046C467.35 97.6262 467.362 98.9831 467.556 100.298C467.751 101.612 468.122 102.859 468.65 103.966C469.178 105.074 469.852 106.02 470.634 106.752C471.416 107.483 472.289 107.986 473.206 108.23C474.122 108.474 475.062 108.456 475.974 108.176C477.342 107.765 478.595 106.779 479.575 105.343C480.555 103.906 481.218 102.083 481.481 100.103C481.744 98.1232 481.595 96.0755 481.053 94.2178C480.51 92.3602 479.599 90.7758 478.433 89.6645C477.275 88.5535 475.912 87.9685 474.522 87.9851L474.469 87.9473Z" fill="white"/>
<path opacity="0.6" d="M453.083 164.258C461.651 164.258 468.596 157.871 468.596 149.992C468.596 142.113 461.651 135.726 453.083 135.726C444.515 135.726 437.57 142.113 437.57 149.992C437.57 157.871 444.515 164.258 453.083 164.258Z" fill="#407BFF"/>
<path opacity="0.3" d="M428.4 170.107C431.919 170.107 434.771 167.488 434.771 164.258C434.771 161.027 431.919 158.408 428.4 158.408C424.882 158.408 422.03 161.027 422.03 164.258C422.03 167.488 424.882 170.107 428.4 170.107Z" fill="#407BFF"/>
</svg>
